HIERARCHY
ROOT Hips
{
	OFFSET 0.000000 35.082581 0.000000
	CHANNELS 6 Xposition Yposition Zposition Xrotation Yrotation Zrotation 
	JOINT Spine
	{
		OFFSET 0.000000 6.876099 0.125700
		CHANNELS 3 Xrotation Yrotation Zrotation
		JOINT Spine1
		{
			OFFSET 0.000000 5.730043 0.104720
			CHANNELS 3 Xrotation Yrotation Zrotation
			JOINT Spine1_split
			{
				OFFSET 0.000000 5.730043 0.104720
				CHANNELS 3 Xrotation Yrotation Zrotation
				JOINT Spine2
				{
					OFFSET 0.000000 5.730043 0.104720
					CHANNELS 3 Xrotation Yrotation Zrotation
					JOINT Neck
					{
						OFFSET 0.000000 10.314075 0.188496
						CHANNELS 3 Xrotation Yrotation Zrotation
						JOINT Head
						{
							OFFSET 0.000000 7.643700 -2.377400
							CHANNELS 3 Xrotation Yrotation Zrotation
							JOINT HeadTop_End
							{
								OFFSET 0.000000 43.788605 -13.619600
								CHANNELS 3 Xrotation Yrotation Zrotation
								End Site
								{
									OFFSET 0.000000 0.000000 0.000000
								}
							}
						}
					}
					JOINT LeftShoulder
					{
						OFFSET 2.196100 4.412489 0.087492
						CHANNELS 3 Xrotation Yrotation Zrotation
						JOINT LeftShoulder_split
						{
							OFFSET 2.196100 4.412489 0.087492
							CHANNELS 3 Xrotation Yrotation Zrotation
							JOINT LeftArm
							{
								OFFSET 8.771219 -2.981674 -0.026999
								CHANNELS 3 Xrotation Yrotation Zrotation
								JOINT LeftForeArm
								{
									OFFSET 8.512804 0.000000 -0.000000
									CHANNELS 3 Xrotation Yrotation Zrotation
									JOINT LeftHand
									{
										OFFSET 18.484802 0.000000 -0.000000
										CHANNELS 3 Xrotation Yrotation Zrotation
										JOINT LeftHandThumb1
										{
											OFFSET 2.499420 -1.158070 2.653252
											CHANNELS 3 Xrotation Yrotation Zrotation
											JOINT LeftHandThumb2
											{
												OFFSET 2.370079 -1.368366 1.368366
												CHANNELS 3 Xrotation Yrotation Zrotation
												JOINT LeftHandThumb3
												{
													OFFSET 2.676727 -1.545410 1.545409
													CHANNELS 3 Xrotation Yrotation Zrotation
													JOINT LeftHandThumb4
													{
														OFFSET 1.692226 -0.977005 0.977007
														CHANNELS 3 Xrotation Yrotation Zrotation
														End Site
														{
															OFFSET 0.000000 0.000000 0.000000
														}
													}
												}
											}
										}
										JOINT LeftHandIndex1
										{
											OFFSET 7.924831 -0.457527 2.345128
											CHANNELS 3 Xrotation Yrotation Zrotation
											JOINT LeftHandIndex2
											{
												OFFSET 3.643303 0.000000 0.000000
												CHANNELS 3 Xrotation Yrotation Zrotation
												JOINT LeftHandIndex3
												{
													OFFSET 3.810799 0.000000 0.000000
													CHANNELS 3 Xrotation Yrotation Zrotation
													JOINT LeftHandIndex4
													{
														OFFSET 2.403702 0.000000 0.000000
														CHANNELS 3 Xrotation Yrotation Zrotation
														End Site
														{
															OFFSET 0.000000 0.000000 0.000000
														}
													}
												}
											}
										}
										JOINT LeftHandMiddle1
										{
											OFFSET 8.563995 0.000000 -0.000000
											CHANNELS 3 Xrotation Yrotation Zrotation
											JOINT LeftHandMiddle2
											{
												OFFSET 3.861618 0.000000 0.000000
												CHANNELS 3 Xrotation Yrotation Zrotation
												JOINT LeftHandMiddle3
												{
													OFFSET 3.701603 0.000000 0.000000
													CHANNELS 3 Xrotation Yrotation Zrotation
													JOINT LeftHandMiddle4
													{
														OFFSET 2.322544 0.000000 0.000000
														CHANNELS 3 Xrotation Yrotation Zrotation
														End Site
														{
															OFFSET 0.000000 0.000000 0.000000
														}
													}
												}
											}
										}
										JOINT LeftHandRing1
										{
											OFFSET 8.426460 -0.424637 -3.286992
											CHANNELS 3 Xrotation Yrotation Zrotation
											JOINT LeftHandRing2
											{
												OFFSET 3.126408 0.000000 0.000000
												CHANNELS 3 Xrotation Yrotation Zrotation
												JOINT LeftHandRing3
												{
													OFFSET 3.085026 0.000000 0.000000
													CHANNELS 3 Xrotation Yrotation Zrotation
													JOINT LeftHandRing4
													{
														OFFSET 1.644005 0.000000 0.000000
														CHANNELS 3 Xrotation Yrotation Zrotation
														End Site
														{
															OFFSET 0.000000 0.000000 0.000000
														}
													}
												}
											}
										}
									}
								}
							}
						}
					}
					JOINT RightShoulder
					{
						OFFSET -2.196100 4.412496 0.070690
						CHANNELS 3 Xrotation Yrotation Zrotation
						JOINT RightShoulder_split
						{
							OFFSET -2.196100 4.412496 0.070690
							CHANNELS 3 Xrotation Yrotation Zrotation
							JOINT RightArm
							{
								OFFSET -8.771282 -2.981682 -0.094208
								CHANNELS 3 Xrotation Yrotation Zrotation
								JOINT RightForeArm
								{
									OFFSET -8.494598 0.000000 0.000000
									CHANNELS 3 Xrotation Yrotation Zrotation
									JOINT RightHand
									{
										OFFSET -18.483803 0.000000 0.000001
										CHANNELS 3 Xrotation Yrotation Zrotation
										JOINT RightHandThumb1
										{
											OFFSET -2.527351 -1.008072 2.575253
											CHANNELS 3 Xrotation Yrotation Zrotation
											JOINT RightHandThumb2
											{
												OFFSET -2.321518 -1.340328 1.340329
												CHANNELS 3 Xrotation Yrotation Zrotation
												JOINT RightHandThumb3
												{
													OFFSET -2.657753 -1.534454 1.534455
													CHANNELS 3 Xrotation Yrotation Zrotation
													JOINT RightHandThumb4
													{
														OFFSET -1.807510 -1.043568 1.043567
														CHANNELS 3 Xrotation Yrotation Zrotation
														End Site
														{
															OFFSET 0.000000 0.000000 0.000000
														}
													}
												}
											}
										}
										JOINT RightHandIndex1
										{
											OFFSET -8.811420 0.015533 2.887987
											CHANNELS 3 Xrotation Yrotation Zrotation
											JOINT RightHandIndex2
											{
												OFFSET -3.537502 0.000000 0.000000
												CHANNELS 3 Xrotation Yrotation Zrotation
												JOINT RightHandIndex3
												{
													OFFSET -3.356201 0.000000 0.000000
													CHANNELS 3 Xrotation Yrotation Zrotation
													JOINT RightHandIndex4
													{
														OFFSET -1.933098 0.000000 0.000000
														CHANNELS 3 Xrotation Yrotation Zrotation
														End Site
														{
															OFFSET 0.000000 0.000000 0.000000
														}
													}
												}
											}
										}
										JOINT RightHandMiddle1
										{
											OFFSET -8.178135 0.000000 0.000000
											CHANNELS 3 Xrotation Yrotation Zrotation
											JOINT RightHandMiddle2
											{
												OFFSET -3.901302 0.000000 0.000000
												CHANNELS 3 Xrotation Yrotation Zrotation
												JOINT RightHandMiddle3
												{
													OFFSET -3.909599 0.000000 0.000000
													CHANNELS 3 Xrotation Yrotation Zrotation
													JOINT RightHandMiddle4
													{
														OFFSET -2.376003 0.000000 0.000000
														CHANNELS 3 Xrotation Yrotation Zrotation
														End Site
														{
															OFFSET 0.000000 0.000000 0.000000
														}
													}
												}
											}
										}
										JOINT RightHandRing1
										{
											OFFSET -7.559013 0.014137 -2.865403
											CHANNELS 3 Xrotation Yrotation Zrotation
											JOINT RightHandRing2
											{
												OFFSET -3.449306 0.000000 0.000000
												CHANNELS 3 Xrotation Yrotation Zrotation
												JOINT RightHandRing3
												{
													OFFSET -3.362106 0.000000 0.000000
													CHANNELS 3 Xrotation Yrotation Zrotation
													JOINT RightHandRing4
													{
														OFFSET -2.076401 0.000000 0.000000
														CHANNELS 3 Xrotation Yrotation Zrotation
														End Site
														{
															OFFSET 0.000000 0.000000 0.000000
														}
													}
												}
											}
										}
									}
								}
							}
						}
					}
				}
			}
		}
	}
	JOINT LeftUpLeg
	{
		OFFSET 10.205400 -3.823500 0.155100
		CHANNELS 3 Xrotation Yrotation Zrotation
		JOINT LeftLeg
		{
			OFFSET 0.708757 -12.982077 0.567790
			CHANNELS 3 Xrotation Yrotation Zrotation
			JOINT LeftFoot
			{
				OFFSET -0.708756 -10.717838 -2.184338
				CHANNELS 3 Xrotation Yrotation Zrotation
				JOINT LeftToeBase
				{
					OFFSET 0.108149 -7.191104 7.560241
					CHANNELS 3 Xrotation Yrotation Zrotation
					JOINT LeftToe_End
					{
						OFFSET 0.070230 0.081724 4.490308
						CHANNELS 3 Xrotation Yrotation Zrotation
						End Site
						{
							OFFSET 0.000000 0.000000 0.000000
						}
					}
				}
			}
		}
	}
	JOINT RightUpLeg
	{
		OFFSET -10.205400 -3.823500 0.005500
		CHANNELS 3 Xrotation Yrotation Zrotation
		JOINT RightLeg
		{
			OFFSET -0.708756 -12.982134 0.610632
			CHANNELS 3 Xrotation Yrotation Zrotation
			JOINT RightFoot
			{
				OFFSET 0.708754 -10.717769 -1.945823
				CHANNELS 3 Xrotation Yrotation Zrotation
				JOINT RightToeBase
				{
					OFFSET -0.108140 -7.191069 7.372968
					CHANNELS 3 Xrotation Yrotation Zrotation
					JOINT RightToe_End
					{
						OFFSET -0.070227 0.081735 4.479403
						CHANNELS 3 Xrotation Yrotation Zrotation
						End Site
						{
							OFFSET 0.000000 0.000000 0.000000
						}
					}
				}
			}
		}
	}
}
MOTION
Frames: 6
Frame Time: 0.016667
-2.936371 26.282955 1.125514 5.729594 -41.145254 12.550638 17.911978 -5.995751 2.947209 28.909032 -4.182641 -1.799672 0.000000 0.000000 0.000000 17.801732 -2.616840 -3.497797 3.925437 -0.806464 17.439380 7.730330 1.255947 -11.559176 -0.000000 -0.000000 0.000003 2.354294 -30.783103 2.356257 0.000000 0.000000 0.000000 -34.242822 -26.233519 -29.291423 -7.515770 -26.361381 1.290832 6.941794 -20.603896 5.351076 16.254348 -11.504930 21.549247 4.507342 18.475124 -9.635912 8.841693 13.664006 -1.275348 0.000000 -0.000002 -0.000000 1.539055 -3.432130 14.456422 -0.180795 -1.247027 -29.044109 -0.139238 -1.164274 -22.988211 -0.000003 -0.000003 -0.000000 1.659185 1.542437 -11.529119 0.180714 -1.715828 -25.398318 0.336251 -2.045020 -28.954364 -0.000003 0.000001 -0.000000 -0.041066 5.351830 -28.839883 -0.820813 -0.913431 -27.616166 -0.881397 -1.072840 -31.473641 -0.000001 -0.000001 -0.000001 -0.512595 12.805424 24.404319 0.000000 0.000000 0.000000 -20.406261 -19.745802 20.483701 -21.210852 81.262872 19.903111 -23.264541 11.560923 8.425363 55.149550 18.649553 -29.698274 -0.442536 -14.180570 7.313140 21.666981 -29.244483 9.142349 0.000001 -0.000003 -0.000003 5.673397 7.585014 36.844158 1.050483 3.824526 68.900264 0.499571 3.026049 62.196447 -0.000003 0.000001 -0.000002 -0.125703 1.886088 45.000763 -1.168975 3.204672 68.417650 -0.936402 1.813627 41.107565 -0.000005 -0.000001 -0.000001 -5.311982 1.216639 58.508807 -0.745225 1.667580 48.011302 -0.816464 1.840618 53.666548 0.000000 -0.000002 -0.000001 -60.336115 23.313090 44.489318 43.592344 -29.516307 2.303392 5.265982 2.089669 -21.865360 -0.941348 -6.111091 0.982353 0.000000 0.000001 0.000000 -9.737531 -5.794210 -45.226688 60.562932 11.611017 -5.451758 -51.808904 -18.214322 30.201403 0.528344 2.970079 1.471423 0.000000 0.000001 -0.000000 
-2.795307 26.353889 1.100918 4.194889 -40.607626 11.094098 17.687758 -5.873002 2.855351 28.357209 -3.983567 -2.018755 0.000000 0.000000 0.000000 17.259835 -2.365353 -3.582328 3.399024 0.434952 18.470305 8.197278 1.394242 -12.300077 0.000000 0.000001 -0.000001 2.328549 -30.676866 2.585231 0.000000 0.000000 0.000000 -33.628836 -25.347566 -29.746522 -7.805139 -23.996582 1.221980 7.439364 -16.512010 6.913806 16.347989 -10.644490 20.290662 4.173220 18.061325 -9.539041 8.819973 13.691521 -1.261286 -0.000004 0.000001 -0.000002 -0.027719 -3.469719 16.408554 -0.157422 -1.203757 -27.954890 -0.118014 -1.121279 -22.001774 0.000002 -0.000000 0.000001 1.407615 2.022322 -8.664060 0.274513 -1.534075 -22.087498 0.441790 -1.863453 -25.796709 -0.000004 -0.000001 -0.000002 0.329455 4.603393 -25.951961 -0.773381 -0.788253 -24.421514 -0.818843 -0.944873 -28.095141 -0.000000 -0.000001 0.000000 -0.608448 13.107893 25.085210 0.000000 0.000000 0.000000 -20.872670 -20.553228 19.261028 -11.667246 82.321360 10.693739 -23.900136 9.732261 8.487077 55.149550 18.649557 -29.698274 -0.442534 -14.180573 7.313139 21.666977 -29.244486 9.142353 0.000003 0.000002 -0.000000 5.673397 7.585012 36.844158 1.050483 3.824526 68.900257 0.499568 3.026050 62.196440 -0.000004 -0.000001 -0.000000 -0.125700 1.886090 45.000756 -1.168973 3.204671 68.417650 -0.936399 1.813625 41.107572 0.000001 -0.000000 0.000000 -5.311979 1.216649 58.508807 -0.745218 1.667588 48.011305 -0.816463 1.840624 53.666545 -0.000001 0.000000 0.000002 -60.426677 23.191165 44.526092 43.821008 -29.530610 2.352330 5.799783 1.204776 -21.126923 -0.941350 -6.111093 0.982353 0.000000 0.000002 -0.000000 -8.066775 -6.953204 -44.714981 59.149650 11.252173 -5.389646 -51.015636 -18.220250 30.518163 0.528342 2.970082 1.471421 0.000000 -0.000001 0.000000 
-2.667492 26.409309 1.088007 2.975950 -39.879811 9.824648 17.485201 -5.670315 2.908600 27.805756 -3.750690 -1.987554 0.000000 0.000000 0.000000 16.722214 -2.190761 -3.347005 2.348154 1.128154 18.345328 8.178895 1.108619 -12.085767 -0.000001 0.000000 -0.000003 2.242982 -30.396230 2.625577 0.000000 0.000000 0.000000 -33.029183 -24.760056 -30.398136 -7.945702 -22.391720 0.965483 6.968096 -14.661013 7.619797 16.520295 -10.013539 19.194232 3.726968 17.497789 -9.405201 8.670559 13.479784 -1.218491 -0.000004 0.000003 0.000002 -1.121927 -3.629169 17.132777 -0.125509 -1.141316 -26.402308 -0.092975 -1.063521 -20.704810 -0.000000 -0.000000 -0.000000 1.251166 2.428148 -6.762196 0.341897 -1.385019 -19.439907 0.518508 -1.713235 -23.243233 0.000000 -0.000000 -0.000001 0.442678 4.444531 -23.821682 -0.734566 -0.666206 -21.365054 -0.754523 -0.799108 -24.439399 -0.000000 -0.000001 -0.000001 -0.501965 12.543235 24.284785 0.000000 0.000000 0.000000 -20.300885 -21.057231 19.750071 -3.535535 83.023927 2.884450 -24.115013 8.786014 8.308343 55.149543 18.649555 -29.698277 -0.442539 -14.180574 7.313140 21.666984 -29.244486 9.142351 0.000000 -0.000001 -0.000004 5.673400 7.585014 36.844154 1.050483 3.824529 68.900264 0.499568 3.026049 62.196447 0.000001 0.000001 -0.000000 -0.125701 1.886094 45.000763 -1.168979 3.204668 68.417650 -0.936403 1.813625 41.107569 -0.000001 0.000000 0.000001 -5.311979 1.216650 58.508801 -0.745225 1.667584 48.011309 -0.816467 1.840618 53.666545 0.000000 0.000000 0.000000 -60.865892 22.973008 44.523254 44.139599 -29.544571 2.413954 6.382172 0.264900 -20.343879 -0.941350 -6.111091 0.982352 -0.000000 0.000001 -0.000000 -6.373119 -8.130871 -44.019954 57.656058 10.783720 -5.327646 -50.270862 -18.389927 30.835845 0.528344 2.970080 1.471423 0.000000 -0.000002 -0.000000 
-2.543850 26.460243 1.077559 1.904065 -39.038923 8.697626 17.253358 -5.471098 2.940261 27.212097 -3.554412 -1.949090 0.000000 0.000000 0.000000 16.129913 -2.065774 -3.134685 1.254568 1.689158 17.729134 7.834703 0.608331 -11.472230 -0.000001 -0.000000 0.000001 2.180199 -30.084675 2.687292 0.000000 0.000000 0.000000 -32.508941 -24.092775 -31.048145 -8.013976 -21.085964 0.699052 6.449163 -13.147119 7.884996 16.823157 -9.647927 18.086865 3.016007 16.587734 -9.197020 8.295755 12.860994 -1.130116 -0.000005 0.000003 -0.000003 -1.666538 -3.856557 16.343908 -0.080183 -1.044504 -24.034983 -0.060084 -0.976338 -18.783727 -0.000001 -0.000004 0.000001 1.220571 2.798725 -5.837808 0.392837 -1.258201 -17.228423 0.574417 -1.585256 -21.055788 -0.000002 0.000002 0.000001 0.086330 5.042143 -22.266482 -0.697784 -0.522224 -17.818276 -0.676535 -0.591930 -19.519689 -0.000000 0.000000 -0.000001 -0.531446 12.423671 23.593271 0.000000 0.000000 0.000000 -19.558411 -22.044762 20.084132 3.473227 83.560247 -3.939850 -24.470164 8.375680 8.315507 55.149550 18.649555 -29.698274 -0.442536 -14.180574 7.313136 21.666981 -29.244486 9.142349 0.000001 -0.000004 0.000001 5.673399 7.585015 36.844158 1.050483 3.824526 68.900264 0.499571 3.026049 62.196440 0.000000 0.000001 -0.000002 -0.125702 1.886097 45.000763 -1.168974 3.204670 68.417650 -0.936404 1.813621 41.107569 -0.000001 0.000002 0.000001 -5.311976 1.216644 58.508801 -0.745221 1.667584 48.011305 -0.816463 1.840622 53.666545 -0.000004 0.000001 -0.000001 -61.394665 22.800935 44.416812 44.381159 -29.540172 2.472862 7.052757 -0.713061 -19.532756 -0.941352 -6.111095 0.982353 -0.000000 0.000000 -0.000000 -4.644483 -9.315983 -43.282745 56.104133 10.273017 -5.261946 -49.528792 -18.637107 31.163851 0.528346 2.970080 1.471423 0.000000 -0.000000 -0.000000 
-2.416160 26.501297 1.070006 0.944117 -38.078930 7.659147 16.972048 -5.228536 2.956670 26.497511 -3.322630 -1.871168 0.000000 0.000000 0.000000 15.414559 -1.914832 -2.870111 0.122187 2.140516 16.791706 7.297426 0.005013 -10.608292 -0.000001 -0.000000 0.000000 2.094808 -29.741270 2.683912 0.000000 0.000000 0.000000 -32.458305 -24.179780 -32.033905 -7.953842 -18.514143 0.568115 5.913439 -12.598928 7.798164 17.233363 -9.462780 16.798203 2.017948 15.305325 -8.937769 7.707071 11.866226 -1.015580 -0.000001 0.000000 -0.000006 -1.807583 -4.162795 14.448500 -0.025246 -0.910578 -20.829265 -0.023111 -0.854776 -16.160895 0.000000 0.000001 -0.000000 1.262182 3.176990 -5.419830 0.440126 -1.125632 -14.951238 0.624411 -1.450648 -18.752776 -0.000001 -0.000001 0.000000 -0.672563 6.218752 -20.676437 -0.664274 -0.338505 -13.360571 -0.599195 -0.302054 -12.933678 0.000001 -0.000001 -0.000001 -0.581437 12.172583 22.633292 0.000000 0.000000 0.000000 -18.476230 -23.129512 20.926081 8.441257 83.819569 -8.871960 -24.702916 8.401414 8.627175 55.149550 18.649555 -29.698270 -0.442533 -14.180570 7.313142 21.666981 -29.244486 9.142353 0.000004 0.000001 0.000002 5.673401 7.585010 36.844165 1.050482 3.824524 68.900264 0.499567 3.026048 62.196447 -0.000000 0.000002 -0.000001 -0.125700 1.886088 45.000763 -1.168973 3.204671 68.417650 -0.936405 1.813627 41.107569 -0.000002 -0.000001 -0.000001 -5.311977 1.216639 58.508807 -0.745220 1.667591 48.011302 -0.816470 1.840620 53.666548 -0.000000 0.000000 0.000002 -62.069699 22.631183 44.234651 44.651119 -29.527140 2.537987 7.794769 -1.740371 -18.649451 -0.941352 -6.111094 0.982354 0.000000 0.000001 0.000000 -2.849523 -10.526711 -42.478989 54.474867 9.719884 -5.192034 -48.766659 -18.956365 31.516846 0.528346 2.970083 1.471424 0.000000 -0.000002 -0.000000 
-2.287197 26.538212 1.068642 0.421047 -37.311090 6.913231 16.667052 -4.959839 2.952171 25.694743 -3.058028 -1.812175 0.000000 0.000000 0.000000 14.600545 -1.729658 -2.630743 -1.047853 2.501034 15.709573 6.691301 -0.589651 -9.645278 0.000001 0.000000 -0.000000 2.003524 -29.369752 2.652537 0.000000 0.000000 0.000000 -32.151384 -23.761171 -32.868028 -7.911224 -17.129742 0.318800 5.306771 -11.891532 7.481507 17.671926 -9.407255 15.494033 0.916431 13.890761 -8.701353 7.027678 10.712638 -0.916173 -0.000004 0.000003 -0.000006 -1.700817 -4.525785 11.901043 0.027538 -0.756376 -17.219855 0.011143 -0.716199 -13.209040 0.000002 0.000001 -0.000001 1.354526 3.541874 -5.378952 0.480539 -0.996805 -12.766626 0.665683 -1.319653 -16.510847 0.000001 -0.000000 0.000000 -1.649377 7.662623 -19.113344 -0.644576 -0.143067 -8.672333 -0.554706 0.022849 -5.814165 0.000000 0.000000 0.000000 -0.689617 12.059405 21.568696 0.000000 0.000000 0.000000 -17.317858 -24.231754 21.746180 11.487721 83.685342 -11.686823 -25.046813 9.146641 8.961482 55.149556 18.649555 -29.698270 -0.442538 -14.180573 7.313139 21.666977 -29.244486 9.142353 -0.000000 0.000000 0.000005 5.673402 7.585014 36.844158 1.050483 3.824532 68.900264 0.499565 3.026047 62.196447 -0.000001 -0.000001 0.000001 -0.125700 1.886093 45.000759 -1.168977 3.204673 68.417650 -0.936395 1.813624 41.107569 -0.000001 -0.000002 -0.000005 -5.311975 1.216645 58.508807 -0.745223 1.667584 48.011305 -0.816466 1.840619 53.666548 -0.000001 -0.000002 0.000001 -62.883865 22.434508 44.114249 44.997624 -29.476525 2.600402 8.382835 -2.562360 -17.846530 -0.941353 -6.111091 0.982352 0.000000 0.000003 -0.000000 -1.583740 -11.358255 -41.713990 53.089042 9.214262 -5.134796 -47.979620 -19.217198 31.857713 0.528349 2.970078 1.471422 -0.000000 0.000001 0.000000 
